<mxfile host="app.diagrams.net" agent="Mozilla/5.0 (Windows NT 10.0; Win64; x64) AppleWebKit/537.36 (KHTML, like Gecko) Chrome/135.0.0.0 Safari/537.36" version="26.2.4">
  <diagram name="第 1 页" id="YyZlW5sZR7npiCZLfsKI">
    <mxGraphModel dx="1190" dy="654" grid="1" gridSize="10" guides="1" tooltips="1" connect="1" arrows="1" fold="1" page="1" pageScale="1" pageWidth="827" pageHeight="1169" math="1" shadow="0">
      <root>
        <mxCell id="0" />
        <mxCell id="1" parent="0" />
        <mxCell id="L2mGT4duGci0xLRF3MFN-1" value="&lt;font style=&quot;font-size: 10px;&quot; face=&quot;Simsun&quot;&gt;&lt;b&gt;轨迹表示学习模型&lt;/b&gt;&lt;/font&gt;&lt;b style=&quot;font-size: 10px; font-family: Simsun; background-color: transparent; color: light-dark(rgb(0, 0, 0), rgb(255, 255, 255));&quot;&gt;$$Enc(\cdot)$$&lt;/b&gt;" style="rounded=1;whiteSpace=wrap;html=1;fillColor=#fff2cc;strokeColor=#d6b656;align=center;" vertex="1" parent="1">
          <mxGeometry x="310" y="365" width="50" height="80" as="geometry" />
        </mxCell>
        <mxCell id="L2mGT4duGci0xLRF3MFN-2" value="" style="curved=1;endArrow=none;html=1;rounded=0;fillColor=#f8cecc;strokeColor=#b85450;startFill=0;strokeWidth=5;" edge="1" parent="1">
          <mxGeometry width="50" height="50" relative="1" as="geometry">
            <mxPoint x="120" y="430" as="sourcePoint" />
            <mxPoint x="170" y="380" as="targetPoint" />
            <Array as="points">
              <mxPoint x="170" y="430" />
              <mxPoint x="100" y="390" />
            </Array>
          </mxGeometry>
        </mxCell>
        <mxCell id="L2mGT4duGci0xLRF3MFN-3" value="" style="rounded=0;whiteSpace=wrap;html=1;fillColor=#f8cecc;strokeColor=#b85450;" vertex="1" parent="1">
          <mxGeometry x="190" y="400" width="10" height="10" as="geometry" />
        </mxCell>
        <mxCell id="L2mGT4duGci0xLRF3MFN-4" value="" style="rounded=0;whiteSpace=wrap;html=1;fillColor=#f8cecc;strokeColor=#b85450;" vertex="1" parent="1">
          <mxGeometry x="200" y="400" width="10" height="10" as="geometry" />
        </mxCell>
        <mxCell id="L2mGT4duGci0xLRF3MFN-5" value="" style="rounded=0;whiteSpace=wrap;html=1;fillColor=#f8cecc;strokeColor=#b85450;" vertex="1" parent="1">
          <mxGeometry x="210" y="400" width="10" height="10" as="geometry" />
        </mxCell>
        <mxCell id="L2mGT4duGci0xLRF3MFN-6" value="" style="rounded=0;whiteSpace=wrap;html=1;fillColor=#f8cecc;strokeColor=#b85450;" vertex="1" parent="1">
          <mxGeometry x="220" y="400" width="10" height="10" as="geometry" />
        </mxCell>
        <mxCell id="L2mGT4duGci0xLRF3MFN-7" value="" style="rounded=0;whiteSpace=wrap;html=1;fillColor=#f8cecc;strokeColor=#b85450;" vertex="1" parent="1">
          <mxGeometry x="230" y="400" width="10" height="10" as="geometry" />
        </mxCell>
        <mxCell id="L2mGT4duGci0xLRF3MFN-8" value="" style="rounded=0;whiteSpace=wrap;html=1;fillColor=#f8cecc;strokeColor=#b85450;" vertex="1" parent="1">
          <mxGeometry x="240" y="400" width="10" height="10" as="geometry" />
        </mxCell>
        <mxCell id="L2mGT4duGci0xLRF3MFN-9" value="" style="rounded=0;whiteSpace=wrap;html=1;fillColor=#f8cecc;strokeColor=#b85450;" vertex="1" parent="1">
          <mxGeometry x="250" y="400" width="10" height="10" as="geometry" />
        </mxCell>
        <mxCell id="L2mGT4duGci0xLRF3MFN-13" value="" style="rounded=0;whiteSpace=wrap;html=1;fillColor=#f8cecc;strokeColor=#b85450;" vertex="1" parent="1">
          <mxGeometry x="190" y="390" width="10" height="10" as="geometry" />
        </mxCell>
        <mxCell id="L2mGT4duGci0xLRF3MFN-14" value="" style="rounded=0;whiteSpace=wrap;html=1;fillColor=#f8cecc;strokeColor=#b85450;" vertex="1" parent="1">
          <mxGeometry x="200" y="390" width="10" height="10" as="geometry" />
        </mxCell>
        <mxCell id="L2mGT4duGci0xLRF3MFN-15" value="" style="rounded=0;whiteSpace=wrap;html=1;fillColor=#f8cecc;strokeColor=#b85450;" vertex="1" parent="1">
          <mxGeometry x="210" y="390" width="10" height="10" as="geometry" />
        </mxCell>
        <mxCell id="L2mGT4duGci0xLRF3MFN-16" value="" style="rounded=0;whiteSpace=wrap;html=1;fillColor=#f8cecc;strokeColor=#b85450;" vertex="1" parent="1">
          <mxGeometry x="220" y="390" width="10" height="10" as="geometry" />
        </mxCell>
        <mxCell id="L2mGT4duGci0xLRF3MFN-17" value="" style="rounded=0;whiteSpace=wrap;html=1;fillColor=#f8cecc;strokeColor=#b85450;" vertex="1" parent="1">
          <mxGeometry x="230" y="390" width="10" height="10" as="geometry" />
        </mxCell>
        <mxCell id="L2mGT4duGci0xLRF3MFN-18" value="" style="rounded=0;whiteSpace=wrap;html=1;fillColor=#f8cecc;strokeColor=#b85450;" vertex="1" parent="1">
          <mxGeometry x="240" y="390" width="10" height="10" as="geometry" />
        </mxCell>
        <mxCell id="L2mGT4duGci0xLRF3MFN-19" value="" style="rounded=0;whiteSpace=wrap;html=1;fillColor=#f8cecc;strokeColor=#b85450;" vertex="1" parent="1">
          <mxGeometry x="250" y="390" width="10" height="10" as="geometry" />
        </mxCell>
        <mxCell id="L2mGT4duGci0xLRF3MFN-23" value="" style="rounded=0;whiteSpace=wrap;html=1;fillColor=#f8cecc;strokeColor=#b85450;" vertex="1" parent="1">
          <mxGeometry x="190" y="410" width="10" height="10" as="geometry" />
        </mxCell>
        <mxCell id="L2mGT4duGci0xLRF3MFN-24" value="" style="rounded=0;whiteSpace=wrap;html=1;fillColor=#f8cecc;strokeColor=#b85450;" vertex="1" parent="1">
          <mxGeometry x="200" y="410" width="10" height="10" as="geometry" />
        </mxCell>
        <mxCell id="L2mGT4duGci0xLRF3MFN-25" value="" style="rounded=0;whiteSpace=wrap;html=1;fillColor=#f8cecc;strokeColor=#b85450;" vertex="1" parent="1">
          <mxGeometry x="210" y="410" width="10" height="10" as="geometry" />
        </mxCell>
        <mxCell id="L2mGT4duGci0xLRF3MFN-26" value="" style="rounded=0;whiteSpace=wrap;html=1;fillColor=#f8cecc;strokeColor=#b85450;" vertex="1" parent="1">
          <mxGeometry x="220" y="410" width="10" height="10" as="geometry" />
        </mxCell>
        <mxCell id="L2mGT4duGci0xLRF3MFN-27" value="" style="rounded=0;whiteSpace=wrap;html=1;fillColor=#f8cecc;strokeColor=#b85450;" vertex="1" parent="1">
          <mxGeometry x="230" y="410" width="10" height="10" as="geometry" />
        </mxCell>
        <mxCell id="L2mGT4duGci0xLRF3MFN-28" value="" style="rounded=0;whiteSpace=wrap;html=1;fillColor=#f8cecc;strokeColor=#b85450;" vertex="1" parent="1">
          <mxGeometry x="240" y="410" width="10" height="10" as="geometry" />
        </mxCell>
        <mxCell id="L2mGT4duGci0xLRF3MFN-29" value="" style="rounded=0;whiteSpace=wrap;html=1;fillColor=#f8cecc;strokeColor=#b85450;" vertex="1" parent="1">
          <mxGeometry x="250" y="410" width="10" height="10" as="geometry" />
        </mxCell>
        <mxCell id="L2mGT4duGci0xLRF3MFN-33" value="" style="rounded=0;whiteSpace=wrap;html=1;fillColor=#fff2cc;strokeColor=#d6b656;" vertex="1" parent="1">
          <mxGeometry x="410" y="385" width="10" height="10" as="geometry" />
        </mxCell>
        <mxCell id="L2mGT4duGci0xLRF3MFN-34" value="" style="rounded=0;whiteSpace=wrap;html=1;fillColor=#fff2cc;strokeColor=#d6b656;" vertex="1" parent="1">
          <mxGeometry x="410" y="395" width="10" height="10" as="geometry" />
        </mxCell>
        <mxCell id="L2mGT4duGci0xLRF3MFN-35" value="" style="rounded=0;whiteSpace=wrap;html=1;fillColor=#fff2cc;strokeColor=#d6b656;" vertex="1" parent="1">
          <mxGeometry x="410" y="375" width="10" height="10" as="geometry" />
        </mxCell>
        <mxCell id="L2mGT4duGci0xLRF3MFN-36" value="" style="rounded=0;whiteSpace=wrap;html=1;fillColor=#fff2cc;strokeColor=#d6b656;" vertex="1" parent="1">
          <mxGeometry x="410" y="415" width="10" height="10" as="geometry" />
        </mxCell>
        <mxCell id="L2mGT4duGci0xLRF3MFN-37" value="" style="rounded=0;whiteSpace=wrap;html=1;fillColor=#fff2cc;strokeColor=#d6b656;" vertex="1" parent="1">
          <mxGeometry x="410" y="425" width="10" height="10" as="geometry" />
        </mxCell>
        <mxCell id="L2mGT4duGci0xLRF3MFN-38" value="" style="rounded=0;whiteSpace=wrap;html=1;fillColor=#fff2cc;strokeColor=#d6b656;" vertex="1" parent="1">
          <mxGeometry x="410" y="405" width="10" height="10" as="geometry" />
        </mxCell>
        <mxCell id="L2mGT4duGci0xLRF3MFN-39" value="" style="endArrow=classic;html=1;rounded=0;fillColor=#f8cecc;strokeColor=#b85450;" edge="1" parent="1">
          <mxGeometry width="50" height="50" relative="1" as="geometry">
            <mxPoint x="270" y="405" as="sourcePoint" />
            <mxPoint x="300" y="405" as="targetPoint" />
          </mxGeometry>
        </mxCell>
        <mxCell id="L2mGT4duGci0xLRF3MFN-40" value="" style="endArrow=classic;html=1;rounded=0;fillColor=#fff2cc;strokeColor=#d6b656;" edge="1" parent="1">
          <mxGeometry width="50" height="50" relative="1" as="geometry">
            <mxPoint x="370" y="405" as="sourcePoint" />
            <mxPoint x="400" y="405" as="targetPoint" />
          </mxGeometry>
        </mxCell>
        <mxCell id="L2mGT4duGci0xLRF3MFN-41" value="&lt;font style=&quot;font-size: 8px;&quot;&gt;$$(L,F)$$&lt;/font&gt;" style="text;html=1;align=center;verticalAlign=middle;whiteSpace=wrap;rounded=0;" vertex="1" parent="1">
          <mxGeometry x="190" y="420" width="40" height="20" as="geometry" />
        </mxCell>
        <mxCell id="L2mGT4duGci0xLRF3MFN-42" value="&lt;font style=&quot;font-size: 8px;&quot;&gt;$$(H)$$&lt;/font&gt;" style="text;html=1;align=center;verticalAlign=middle;whiteSpace=wrap;rounded=0;" vertex="1" parent="1">
          <mxGeometry x="420" y="415" width="30" height="20" as="geometry" />
        </mxCell>
      </root>
    </mxGraphModel>
  </diagram>
</mxfile>
